# xmcd
#
# Track frame offsets:
#	182
#	12935
#	22750
#	34262
#	45022
#	52732
#	66157
#	78192
#	89610
#	96905
#	108542
#	120390
#	133027
#	144057
#	157670
#	169812
#	179682
#	192367
#	203490
#	214742
#	227212
#	242260
#	253957
#	264065
#	271845
#	281410
#
# Disc length: 3881
#
# Revision: 2
# Processed by: cddbd v1.5.1PL0 Copyright (c) Steve Scherf et al.
# Submitted via: audiograbber 1.81.03
# Normalized: r1:DSETVAR1
#
DISCID=4d0f271a
DTITLE=Various Artist - Country Stars vol 1
DYEAR=1900
DGENRE=Country
TTITLE0=Patsy Cline - Yes I understand
TTITLE1=Patsy Cline - I'm blue again
TTITLE2=Waylon Jennings - Crying
TTITLE3=Waylon Jennings - Dream baby
TTITLE4=Georges Jones - Jambalaya
TTITLE5=Georges Jones - Cold cold heart
TTITLE6=Dolly Parton - Two little orphans
TTITLE7=Conway Twitty - Have I seen awway too long
TTITLE8=Conway Twitty - Treat me mean treat me cruel
TTITLE9=Willie Nelson - Some other time
TTITLE10=Willie Nelson - I hope so
TTITLE11=Johnny Cash - Folsom prison blues
TTITLE12=Johnny Cash - Oh lonesome me
TTITLE13=Hoyt Axton - Lonesome road
TTITLE14=Dolly Parton - After you've gone
TTITLE15=Dolly Parton - Release me
TTITLE16=Stonewall Jackson - Old chunk of coal
TTITLE17=Stonewall Jackson - Life to go
TTITLE18=Johnny Paycheck - Take this job and shove it
TTITLE19=Johnny Paycheck - Slide of your satin sheets
TTITLE20=Carl Perkins - I don't want to fall in love again
TTITLE21=Carl Perkins - I want you back again
TTITLE22=Faron Young - Hello walls
TTITLE23=Faron Young - Your cheatin heart
TTITLE24=Ray Pillow - Living in the sunshine of your love
TTITLE25=Ray Pillow - We're together again
EXTD=
EXTT0=
EXTT1=
EXTT2=
EXTT3=
EXTT4=
EXTT5=
EXTT6=
EXTT7=
EXTT8=
EXTT9=
EXTT10=
EXTT11=
EXTT12=
EXTT13=
EXTT14=
EXTT15=
EXTT16=
EXTT17=
EXTT18=
EXTT19=
EXTT20=
EXTT21=
EXTT22=
EXTT23=
EXTT24=
EXTT25=
PLAYORDER=
